<svg width="25" height="30" viewBox="0 0 25 30" fill="none" xmlns="http://www.w3.org/2000/svg">
<path d="M2.38215 21.1096C4.29377 18.7692 15.6801 14.9909 13.455 10.6698C12.7004 9.20434 9.29219 8.99227 6.27278 8.80438C4.40412 8.6881 2.68446 8.58108 1.83485 8.19198C-1.06487 6.77645 -0.242177 2.85778 2.3169 1.56024L2.32661 1.55529C4.24818 0.567804 6.93946 0.000420705 10.5324 0.000420705C15.3602 -0.000990504 24.8045 -0.148698 24.8045 6.78442C24.8045 8.76272 24.0057 10.704 22.1436 12.6495C21.0814 13.7617 19.5232 14.1653 18.1146 14.6423C15.3677 15.5726 12.5205 16.5369 12.9786 19.5451C13.377 22.1606 16.5324 23.008 18.7681 22.809C21.0982 22.6015 24.7084 22.4987 24.7084 25.7444C24.7084 29.821 17.036 29.5849 13.6501 29.4806C11.0723 29.4013 8.49643 29.4376 5.93806 29.0473C1.86516 28.426 -0.468308 24.5539 2.38215 21.1096Z" fill="#6F826D"/>
</svg>
