<svg width="170" height="30" viewBox="0 0 170 30" fill="none" xmlns="http://www.w3.org/2000/svg">
<path d="M2.38215 21.1096C4.29377 18.7692 15.6801 14.9909 13.455 10.6698C12.7004 9.20434 9.29218 8.99227 6.27278 8.80438C4.40412 8.6881 2.68446 8.58108 1.83485 8.19198C-1.06487 6.77645 -0.242177 2.85778 2.3169 1.56024L2.32661 1.55529C4.24818 0.567804 6.93946 0.000420704 10.5324 0.000420704C15.3602 -0.000990505 24.8045 -0.148698 24.8045 6.78442C24.8045 8.76272 24.0057 10.704 22.1436 12.6495C21.0814 13.7617 19.5232 14.1653 18.1146 14.6423C15.3677 15.5726 12.5205 16.5369 12.9786 19.5451C13.377 22.1606 16.5324 23.008 18.7681 22.809C21.0982 22.6015 24.7084 22.4987 24.7084 25.7444C24.7084 29.821 17.036 29.5849 13.6501 29.4806C11.0723 29.4013 8.49643 29.4376 5.93806 29.0473C1.86516 28.426 -0.468308 24.5539 2.38215 21.1096Z" fill="#4F4F4F"/>
<path d="M46.164 18.4568L46.1828 18.4532C48.5997 17.9832 48.3892 15.7703 46.2142 15.3204L46.2092 15.3193L46.1959 15.3167C44.6776 15.013 43.1715 14.9194 41.6271 15.0735C39.4915 15.2867 36.1676 15.6185 35.2045 13.5004C34.8331 12.6836 34.9342 11.2704 35.6757 10.2004C36.8454 8.51263 39.5625 8.38235 42.209 8.25543C45.4806 8.09854 48.6445 7.9468 48.6445 4.86443C48.6445 3.67272 48.1457 2.61627 46.8092 1.6199L46.7999 1.613L46.7907 1.60595C45.5827 0.683526 43.1197 0.000420704 38.8845 0.000420704C35.9808 0.000420704 33.6599 0.685449 31.8129 1.95016C29.935 3.25814 28.5049 5.0313 27.5239 7.32955C26.5241 9.67211 26.0045 12.3437 26.0045 15.3764C26.0045 21.6219 27.5626 25.0708 29.9252 26.68C32.7766 28.5985 36.2437 29.6004 40.4205 29.6004C44.0009 29.6004 46.0833 29.168 47.0684 28.6113C48.0432 28.0603 48.2604 27.525 48.2604 26.9444C48.2604 24.5323 44.1586 25.0209 42.7043 25.1642C39.8679 25.4437 36.7415 25.7518 34.8331 22.5258C34.5091 21.9782 34.2336 21.0466 34.7515 20.0859C35.9415 17.8784 39.6463 18.6525 41.721 18.7523C43.4201 18.834 45.4086 18.6197 46.0682 18.4774L46.164 18.4568Z" fill="#4F4F4F"/>
<path d="M50.0045 13.8404C50.0045 9.92556 50.6261 6.5285 51.8209 3.61221C52.7116 1.4728 54.2932 0.000420704 56.6925 0.000420704C60.0767 0.000420704 61.4239 4.84116 62.093 7.53387L62.0934 7.53515L62.0938 7.53661L62.0941 7.53817C62.9088 10.8175 63.9823 15.1392 66.5645 15.1864C68.7733 15.2267 68.6519 12.8427 68.5634 11.1015C68.4124 8.1372 68.6137 4.88139 69.8399 2.14303C70.4383 0.858544 71.4067 0.000420704 72.8685 0.000420704C74.8706 0.000420704 75.885 1.60375 76.4318 3.35006L76.4336 3.35561C77.3488 6.24886 77.8284 9.73226 77.8284 13.8404C77.8284 16.199 77.53 18.6689 76.9216 21.2544L76.9191 21.2652L76.9166 21.2761C76.3624 23.7555 75.4315 25.7987 74.1613 27.4556C73.0581 28.8944 71.7188 29.5524 69.9885 29.5524C69.0875 29.5524 68.3147 29.2552 67.5884 28.5799C64.9382 25.9126 63.6479 21.747 62.5654 18.253C62.0166 16.4814 61.2353 13.9596 59.0957 14.6477C56.5914 15.4531 56.9938 19.5308 57.3188 22.8239C57.5157 24.8192 57.8613 27.2811 56.3977 28.9277L56.3836 28.9434L56.37 28.9595C56.1281 29.2434 55.653 29.5524 54.5325 29.5524C53.9909 29.5524 53.2706 29.2997 52.4752 27.7658C51.6334 26.0782 50.9974 23.973 50.6055 21.4101C50.2034 18.7814 50.0045 16.2588 50.0045 13.8404Z" fill="#4F4F4F"/>
<path d="M96.8996 13.3357C95.9854 9.04519 98.5935 9.15738 102.093 8.8749C104.97 8.64269 108.904 8.32516 108.972 5.00842C109.034 1.94857 105.603 1.00771 103.167 0.596521C100.858 0.206598 97.7656 0.000420704 93.8525 0.000420704C89.9714 0.000420704 86.9128 0.206628 84.6376 0.595788C82.0982 1.03018 79.0045 1.94897 79.0045 5.00842C79.0045 8.30694 82.5468 8.72271 85.1682 9.03036C88.6098 9.4358 91.6102 8.78769 90.7244 13.1035C89.8792 17.2218 88.7828 24.9031 91.7567 28.5632C92.1359 29.03 92.7126 29.3604 93.8045 29.3604C94.9707 29.3604 95.6381 29.0297 96.0754 28.5674C99.0551 25.2304 97.6957 17.072 96.8996 13.3357Z" fill="#4F4F4F"/>
<path d="M118.215 13.9587L118.198 13.932C115.829 10.2091 119.695 4.12091 116.647 1.07244L116.636 1.06188L116.626 1.05117C116.015 0.421411 114.964 -0.0531987 113.789 0.0262386C110.008 0.281827 110.005 7.31745 110.005 9.53024C110.005 12.3714 109.911 14.578 112.005 16.5262C114.371 18.7281 117.656 17.7908 119.505 20.0262C120.237 20.911 119.813 22.4681 119.381 24.0527C118.904 25.8044 118.418 27.5896 119.474 28.537C120.256 29.2059 121.132 29.5302 122.189 29.5302C123.135 29.5302 123.874 29.2338 124.517 28.6312C125.424 27.7783 124.966 25.9817 124.516 24.2152C124.075 22.4848 123.642 20.7833 124.505 20.0262L124.511 20.0208C126.829 17.9774 130.041 18.8786 132.505 16.5262C134.703 14.4283 134.996 12.1136 135.005 9.02624C135.011 6.87499 133.677 0.417859 130.637 0.0262386C129.458 -0.125617 128.437 0.414331 127.779 1.07244L127.769 1.083L127.758 1.09341C124.644 4.11611 128.611 10.2481 126.115 13.9592C125.199 15.3749 123.712 15.9142 122.189 15.9142C120.651 15.9142 119.176 15.3683 118.233 13.9849L118.215 13.9587Z" fill="#4F4F4F"/>
<path d="M169.396 15.6643C169.396 17.7463 169.104 19.9258 168.503 22.2079C168.005 24.1371 166.233 29.0243 163.544 29.0243C162.533 29.0243 162.491 28.9045 161.914 28.5845C159.974 27.5079 160.39 25.4038 161.233 22.9449C161.722 21.5193 162.244 19.9962 162.232 18.5443C162.216 16.5003 160.789 14.6083 160.289 14.0003C159.289 12.7843 158.772 12.292 157.504 12.3283C156.531 12.3562 155.81 12.7247 155.266 13.4244C153.889 15.1942 154.377 18.0574 154.862 20.9042C155.391 24.0108 155.916 27.0981 154.013 28.7239C153.684 28.9538 153.295 29.1203 152.58 29.1203C151.866 29.1203 151.401 28.9538 151.072 28.7239C149.169 27.098 149.694 24.0108 150.223 20.9042C150.708 18.0574 151.196 15.1942 149.819 13.4244C149.275 12.7247 148.552 12.3826 147.58 12.3283C146.115 12.2464 145.318 12.9533 144.289 14.0003C143.659 14.6404 142.852 16.7504 142.852 18.5443C142.852 19.9685 143.365 21.475 143.847 22.8918C144.696 25.3835 145.129 27.5312 143.154 28.6C142.581 28.9101 142.552 29.0243 141.54 29.0243C136.881 29.0243 136.004 17.7568 136.004 14.6083C136.004 12.8965 136.156 9.74876 137.102 7.10801C138.037 4.4958 139.761 2.38438 140.428 1.79328C141.768 0.604562 143.366 0.000314335 145.332 0.000314335C148.217 0.000314335 149.049 1.35574 149.974 3.69532C150.472 4.95521 151.075 6.48033 152.676 6.48033C154.322 6.48033 154.874 4.99946 155.185 3.62693C155.857 1.39181 157.569 0.000314335 159.924 0.000314335C161.867 0.000314335 163.434 0.593362 164.741 1.75269L164.756 1.76591L164.772 1.77882C166.166 2.96659 167.302 4.69453 168.109 7.08763L168.113 7.09782L168.116 7.10801C168.955 9.50807 169.396 12.3492 169.396 15.6643Z" fill="#4F4F4F"/>
</svg>
